<?xml version="1.0" encoding="utf-8"?>
<!-- Generator: Adobe Illustrator 22.1.0, SVG Export Plug-In . SVG Version: 6.00 Build 0)  -->
<svg version="1.1" id="Ebene_1" xmlns="http://www.w3.org/2000/svg" xmlns:xlink="http://www.w3.org/1999/xlink" x="0px" y="0px"
	 viewBox="0 0 64 64" style="enable-background:new 0 0 64 64;" xml:space="preserve">
<style type="text/css">
	.st0{fill:#CCC9C9;}
</style>
<path class="st0" d="M4.4,16.9c0.1,0.1,0.2,0.3,0.3,0.4c0.1,0.1,0.2,0.3,0.4,0.5c0.3,0.3,0.6,0.7,0.9,1c0.7,0.7,1.4,1.6,2.3,2.4
	c0.4,0.4,0.9,0.8,1.4,1.2c0.5,0.4,1,0.8,1.5,1.2c0.5,0.4,1,0.8,1.5,1.1c0.5,0.4,1,0.7,1.5,1c0.5,0.3,1,0.6,1.4,0.9
	c0.2,0.1,0.5,0.3,0.7,0.4c0.2,0.1,0.4,0.2,0.6,0.4c0.1,0,0.1,0.1,0.2,0.1L15.6,30l7.1,0.9c0.3-2.5,1.6-4.6,3.5-6.1l-4.4-5.7
	l-1.5,2.7c-0.1,0-0.1-0.1-0.2-0.1c-0.2-0.1-0.4-0.2-0.6-0.4c-0.2-0.1-0.4-0.3-0.7-0.4c-0.5-0.3-1-0.5-1.5-0.8
	c-0.5-0.3-1.1-0.5-1.6-0.8c-0.6-0.3-1.1-0.5-1.7-0.8c-0.6-0.2-1.2-0.5-1.8-0.7c-0.6-0.2-1.2-0.4-1.7-0.6c-1.1-0.4-2.2-0.6-3.2-0.8
	c-0.5-0.1-0.9-0.2-1.3-0.2c-0.2,0-0.4-0.1-0.6-0.1c-0.2,0-0.3,0-0.5-0.1c-0.3,0-0.5,0-0.7-0.1c-0.2,0-0.3,0-0.3,0s0,0.1,0.1,0.2
	C4.1,16.4,4.3,16.6,4.4,16.9z M48.7,16.3c0.7-0.3,1.2-0.5,1.7-0.7c0.5-0.2,1.1-0.4,1.8-0.6l0,0l0,0c0.9-0.3,1.9-0.6,2.8-0.8
	C50.4,8.2,43.5,4,35.6,3l2.9,7C42.5,11.1,45.9,13.3,48.7,16.3z M28.5,15c0,0.1,0,0.1,0,0.2c0,0.2,0,0.5,0,0.7c0,0.3,0,0.5,0,0.8
	c0,0.5,0,1.1,0.1,1.7c0,0.6,0.1,1.2,0.1,1.8c0.1,0.6,0.1,1.2,0.2,1.9c0.1,0.4,0.1,0.9,0.2,1.3c0.8-0.3,1.7-0.4,2.6-0.4
	c0.9,0,1.8,0.1,2.6,0.4c0.1-0.4,0.1-0.9,0.2-1.3c0.1-0.6,0.2-1.3,0.2-1.9c0.1-0.6,0.1-1.2,0.1-1.8c0-0.6,0-1.2,0.1-1.7
	c0-0.3,0-0.5,0-0.8c0-0.3,0-0.5,0-0.7c0-0.1,0-0.1,0-0.2H38L31.7,0l-6.3,15H28.5z M58.9,43.3c1.4-3.4,2.2-7.2,2.2-11.2
	c0-4-0.8-7.8-2.2-11.3c-0.6,0.7-1.3,1.4-2.1,2.1l0,0l0,0c-0.6,0.5-1,0.9-1.5,1.3c-0.4,0.3-0.9,0.7-1.4,1.1c0.7,2.1,1,4.4,1,6.7
	c0,1.8-0.2,3.5-0.6,5.2L58.9,43.3z M51.2,17.9c-0.6,0.2-1.2,0.4-1.8,0.7c-0.6,0.2-1.2,0.5-1.7,0.8c-0.6,0.3-1.1,0.5-1.6,0.8
	c-0.5,0.3-1,0.5-1.5,0.8c-0.2,0.1-0.5,0.3-0.7,0.4c-0.2,0.1-0.4,0.3-0.6,0.4c-0.1,0-0.1,0.1-0.2,0.1l-1.5-2.7l-4.4,5.7
	c1.9,1.4,3.2,3.6,3.5,6.1l7.1-0.9l-1.5-2.7c0.1,0,0.1-0.1,0.2-0.1c0.2-0.1,0.4-0.2,0.6-0.4c0.2-0.1,0.4-0.3,0.7-0.4
	c0.5-0.3,0.9-0.6,1.4-0.9c0.5-0.3,1-0.7,1.5-1c0.5-0.4,1-0.7,1.5-1.1c0.5-0.4,1-0.8,1.5-1.2c0.5-0.4,0.9-0.8,1.4-1.2
	c0.9-0.8,1.7-1.6,2.3-2.4c0.3-0.4,0.6-0.7,0.9-1c0.1-0.2,0.2-0.3,0.4-0.5c0.1-0.1,0.2-0.3,0.3-0.4c0.2-0.2,0.3-0.4,0.4-0.6
	c0.1-0.1,0.1-0.2,0.1-0.2s-0.1,0-0.3,0c-0.2,0-0.4,0-0.7,0.1c-0.2,0-0.3,0-0.5,0.1c-0.2,0-0.4,0-0.6,0.1c-0.4,0.1-0.9,0.1-1.3,0.2
	c-1,0.2-2.1,0.5-3.2,0.8C52.4,17.5,51.8,17.7,51.2,17.9z M31.7,25.5c-3.7,0-6.6,3-6.6,6.6c0,3.6,3,6.6,6.6,6.6s6.6-3,6.6-6.6
	C38.4,28.5,35.4,25.5,31.7,25.5z M11.2,15L11.2,15c0.7,0.2,1.3,0.4,1.9,0.6c0.5,0.2,1.1,0.4,1.7,0.7c2.7-2.9,6.2-5.1,10.1-6.3l2.9-7
	C19.9,4,13,8.2,8.4,14.2C9.3,14.4,10.3,14.7,11.2,15L11.2,15z M37,54.7c-0.1,0.7-0.2,1.3-0.3,1.8c-0.1,0.6-0.2,1.2-0.4,1.9l0,0l0,0
	c-0.2,1-0.5,1.9-0.8,2.8c7.9-1,14.8-5.2,19.4-11.2l-7.5-1C44.6,51.8,41,53.8,37,54.7z M34.9,47.1H38l-2.8-6.6
	c-1.1,0.4-2.3,0.7-3.5,0.7c-1.2,0-2.4-0.2-3.5-0.7l-2.8,6.6h3.1c0,0.1,0,0.1,0,0.2c0,0.2,0,0.5,0,0.7c0,0.3,0,0.5,0,0.8
	c0,0.5,0,1.1,0.1,1.7c0,0.6,0.1,1.2,0.1,1.8c0.1,0.6,0.1,1.2,0.2,1.9c0.1,0.6,0.2,1.3,0.3,1.9c0.1,0.6,0.2,1.2,0.4,1.8
	c0.3,1.2,0.6,2.3,0.9,3.2c0.2,0.5,0.3,0.9,0.5,1.3c0.1,0.2,0.1,0.4,0.2,0.5c0.1,0.2,0.1,0.3,0.2,0.5c0.1,0.3,0.2,0.5,0.3,0.6
	c0.1,0.1,0.1,0.2,0.1,0.2s0-0.1,0.1-0.2c0.1-0.1,0.2-0.4,0.3-0.6c0.1-0.1,0.1-0.3,0.2-0.5c0.1-0.2,0.1-0.3,0.2-0.5
	c0.2-0.4,0.3-0.8,0.5-1.3c0.3-0.9,0.6-2,0.9-3.2c0.1-0.6,0.3-1.2,0.4-1.8c0.1-0.6,0.2-1.2,0.3-1.9c0.1-0.6,0.2-1.3,0.2-1.9
	c0.1-0.6,0.1-1.2,0.1-1.8c0-0.6,0-1.2,0.1-1.7c0-0.3,0-0.5,0-0.8c0-0.3,0-0.5,0-0.7C34.9,47.3,34.9,47.2,34.9,47.1z M9.1,37.3
	c-0.4-1.7-0.6-3.4-0.6-5.2c0-2.3,0.4-4.6,1-6.7c-0.6-0.4-1-0.8-1.4-1.1c-0.4-0.4-0.9-0.8-1.5-1.3l0,0l0,0c-0.7-0.7-1.4-1.4-2.1-2.1
	c-1.4,3.5-2.2,7.3-2.2,11.3c0,4,0.8,7.7,2.2,11.2L9.1,37.3z M48.1,37.9c-0.1,0-0.1-0.1-0.2-0.1c-0.2-0.1-0.4-0.2-0.6-0.4
	c-0.2-0.1-0.4-0.3-0.7-0.4c-0.5-0.3-1-0.5-1.5-0.8c-0.5-0.3-1.1-0.5-1.6-0.8c-0.6-0.3-1.1-0.5-1.7-0.8c-0.4-0.2-0.8-0.3-1.2-0.5
	c-0.4,1.8-1.4,3.4-2.7,4.6c0.3,0.3,0.7,0.5,1,0.8c0.5,0.4,1,0.8,1.5,1.1c0.5,0.4,1,0.7,1.5,1c0.5,0.3,1,0.6,1.4,0.9
	c0.2,0.1,0.5,0.3,0.7,0.4c0.2,0.1,0.4,0.2,0.6,0.4c0.1,0,0.1,0.1,0.2,0.1l-1.5,2.7l16.2,2.1l-9.9-12.9L48.1,37.9z M27.1,58.5
	L27.1,58.5c-0.2-0.8-0.3-1.4-0.4-1.9c-0.1-0.5-0.2-1.1-0.3-1.8c-4-0.9-7.6-2.9-10.5-5.6l-7.5,1c4.6,6,11.6,10.2,19.4,11.2
	C27.6,60.4,27.3,59.4,27.1,58.5L27.1,58.5z M18.5,43.4c0.1,0,0.1-0.1,0.2-0.1c0.2-0.1,0.4-0.2,0.6-0.4c0.2-0.1,0.4-0.3,0.7-0.4
	c0.5-0.3,0.9-0.6,1.4-0.9c0.5-0.3,1-0.7,1.5-1c0.5-0.4,1-0.7,1.5-1.1c0.3-0.3,0.7-0.5,1-0.8c-1.3-1.2-2.2-2.8-2.7-4.6
	c-0.4,0.2-0.8,0.3-1.2,0.5c-0.6,0.2-1.2,0.5-1.7,0.8c-0.6,0.3-1.1,0.5-1.6,0.8c-0.5,0.3-1,0.5-1.5,0.8c-0.2,0.1-0.5,0.3-0.7,0.4
	c-0.2,0.1-0.4,0.3-0.6,0.4c-0.1,0-0.1,0.1-0.2,0.1l-1.5-2.7L3.9,48.2L20,46.1L18.5,43.4z"/>
</svg>
