<?xml version="1.0" encoding="utf-8"?>
<!-- Generator: Adobe Illustrator 22.1.0, SVG Export Plug-In . SVG Version: 6.00 Build 0)  -->
<svg version="1.1" id="Ebene_1" xmlns="http://www.w3.org/2000/svg" xmlns:xlink="http://www.w3.org/1999/xlink" x="0px" y="0px"
	 viewBox="0 0 512 512" style="enable-background:new 0 0 512 512;" xml:space="preserve">
<style type="text/css">
	.st0{fill:url(#SVGID_1_);}
</style>
<linearGradient id="SVGID_1_" gradientUnits="userSpaceOnUse" x1="21.0272" y1="256.1202" x2="490.3977" y2="256.1202">
	<stop  offset="0" style="stop-color:#B41414"/>
	<stop  offset="1" style="stop-color:#B41464"/>
</linearGradient>
<path class="st0" d="M38.2,134.4c0.7,1,1.5,2,2.3,3.2c0.9,1.1,1.8,2.4,2.8,3.6c2,2.6,4.4,5.3,7,8.3c5.2,5.9,11.6,12.4,18.6,18.9
	c3.5,3.2,7.2,6.5,11,9.7c3.8,3.2,7.8,6.3,11.7,9.4c4,3,8,6,12.1,8.8c4,2.8,8,5.5,12,8.1c3.9,2.6,7.8,4.9,11.5,7.1
	c1.8,1.1,3.6,2.1,5.4,3.2c1.8,1,3.5,1.9,5.1,2.9c0.5,0.3,1,0.6,1.5,0.8l-12.2,21.2l56.6,7.3c2.5-19.7,13-36.9,28.2-48.4l-34.8-45.5
	l-12.2,21.2c-0.5-0.3-1-0.6-1.5-0.9c-1.6-1-3.3-1.9-5-3c-1.8-1-3.6-2-5.4-3.1c-3.7-2.1-7.7-4.2-11.9-6.4c-4.2-2.2-8.5-4.3-13-6.4
	c-4.5-2.1-9.1-4.1-13.7-6c-4.7-1.9-9.3-3.8-14-5.5c-4.7-1.7-9.4-3.3-13.9-4.7c-9.2-2.8-17.9-5.1-25.7-6.6c-3.9-0.8-7.4-1.4-10.7-1.9
	c-1.6-0.3-3.1-0.5-4.5-0.6c-1.4-0.2-2.7-0.3-3.9-0.5c-2.4-0.3-4.3-0.4-5.6-0.5c-1.3-0.1-2-0.1-2-0.1s0.4,0.6,1.1,1.7
	C35.7,130.9,36.7,132.5,38.2,134.4z M390.9,129.6c5.2-2.1,9.5-3.8,13.6-5.3c4.3-1.6,8.9-3.1,14.7-5l0,0l0,0
	c7.5-2.3,15.2-4.4,22.5-6.1c-36.9-48-92-81.4-154.8-89.8l23.2,55.5C341.4,88.7,369.1,106.4,390.9,129.6z M230.2,119.8
	c0,0.6,0,1.1,0,1.7c0,1.9,0,3.8-0.1,5.8c0,2,0,4.1,0.1,6.2c0.1,4.3,0.2,8.8,0.4,13.5c0.2,4.7,0.5,9.5,1,14.4c0.4,4.9,1,9.9,1.6,14.9
	c0.5,3.5,1,7,1.6,10.4c6.7-2,13.7-3.1,21-3.1c7.3,0,14.4,1.1,21,3.1c0.6-3.5,1.1-6.9,1.6-10.4c0.6-5,1.2-10,1.6-14.9
	c0.4-4.9,0.8-9.7,1-14.4c0.2-4.7,0.4-9.2,0.4-13.5c0-2.1,0-4.2,0.1-6.2c0-2,0-4-0.1-5.8c0-0.6,0-1.1,0-1.7h24.4L255.7,0l-50,119.8
	H230.2z M472.8,345.3c11.3-27.5,17.6-57.6,17.6-89.2c0-31.8-6.4-62.1-17.9-89.8c-5.1,5.5-10.8,11.2-16.6,16.6l0,0l0,0
	c-4.6,4.2-8.2,7.3-11.7,10.3c-3.3,2.8-6.9,5.7-11.3,9.1c5.2,17,8,35.1,8,53.8c0,14.2-1.6,28-4.7,41.3L472.8,345.3z M411.2,143
	c-4.7,1.7-9.4,3.5-14,5.5c-4.6,1.9-9.2,3.9-13.7,6c-4.5,2.1-8.8,4.2-13,6.4c-4.2,2.1-8.1,4.3-11.9,6.4c-1.9,1.1-3.7,2.1-5.4,3.1
	c-1.7,1-3.4,2-5,3c-0.5,0.3-1,0.6-1.5,0.9l-12.2-21.2l-34.8,45.5c15.1,11.5,25.6,28.7,28.2,48.4l56.6-7.3l-12.2-21.2
	c0.5-0.3,1-0.5,1.5-0.8c1.6-0.9,3.3-1.9,5.1-2.9c1.7-1,3.5-2.1,5.4-3.2c3.7-2.2,7.5-4.6,11.5-7.1c3.9-2.5,8-5.2,12-8.1
	c4-2.8,8.1-5.8,12.1-8.8c4-3.1,7.9-6.2,11.7-9.4c3.8-3.2,7.5-6.5,11-9.7c7-6.5,13.4-13,18.6-18.9c2.6-3,5-5.7,7-8.3
	c1-1.2,2-2.5,2.8-3.6c0.9-1.1,1.7-2.2,2.3-3.2c1.4-1.9,2.5-3.5,3.2-4.6c0.7-1.1,1.1-1.7,1.1-1.7s-0.7,0-2,0.1
	c-1.3,0.1-3.2,0.2-5.6,0.5c-1.2,0.1-2.5,0.3-3.9,0.5c-1.4,0.2-2.9,0.4-4.5,0.6c-3.2,0.5-6.8,1.2-10.7,1.9
	c-7.7,1.6-16.5,3.8-25.7,6.6C420.6,139.7,415.9,141.3,411.2,143z M255.7,203.5c-29.3,0-53,23.6-53,52.6c0,29.1,23.7,52.6,53,52.6
	s53-23.6,53-52.6C308.7,227,285,203.5,255.7,203.5z M92.2,119.4L92.2,119.4c5.9,1.9,10.5,3.4,14.8,5c4,1.5,8.4,3.1,13.6,5.3
	c21.8-23.3,49.5-40.9,80.7-50.6l23.2-55.5c-62.9,8.4-117.9,41.8-154.9,89.8C76.9,115,84.6,117,92.2,119.4L92.2,119.4z M297.7,436.5
	c-0.8,5.5-1.5,10.1-2.2,14.3c-0.8,4.5-1.7,9.2-3.1,15.3l0,0l0,0c-1.8,7.7-3.8,15.5-6.1,22.6c62.9-8.2,118-41.4,155.1-89.3l-59.7-7.7
	C358.4,413.4,329.6,429.1,297.7,436.5z M281.3,375.9h24.4L283.6,323c-8.6,3.6-18,5.6-27.9,5.6c-9.9,0-19.3-2-27.9-5.5l-22.1,52.9
	h24.4c0,0.6,0,1.1,0,1.7c0,1.9,0,3.8-0.1,5.8c0,2,0,4.1,0.1,6.2c0.1,4.3,0.2,8.8,0.4,13.5c0.2,4.7,0.5,9.5,1,14.4
	c0.4,4.9,1,9.9,1.6,14.9c0.7,5,1.4,10,2.3,14.9c0.8,4.9,1.9,9.7,2.9,14.4c2.1,9.3,4.6,18.1,7.1,25.5c1.3,3.7,2.5,7.2,3.7,10.2
	c0.6,1.5,1.2,2.9,1.7,4.3c0.5,1.3,1.1,2.5,1.6,3.6c1,2.2,1.8,3.9,2.4,5.1c0.6,1.2,0.9,1.8,0.9,1.8s0.3-0.6,0.9-1.8
	c0.6-1.2,1.4-2.9,2.4-5.1c0.5-1.1,1-2.3,1.6-3.6c0.6-1.3,1.2-2.7,1.7-4.3c1.2-3,2.4-6.5,3.7-10.2c2.5-7.5,5-16.2,7.1-25.5
	c1-4.7,2-9.5,2.9-14.4c0.9-4.9,1.6-9.9,2.3-14.9c0.6-5,1.2-10,1.6-14.9c0.4-4.9,0.8-9.7,1-14.4c0.2-4.7,0.4-9.2,0.4-13.5
	c0-2.1,0-4.2,0.1-6.2c0-2,0-4-0.1-5.8C281.3,377.1,281.3,376.5,281.3,375.9z M75.2,297.5c-3-13.3-4.7-27.1-4.7-41.3
	c0-18.7,2.8-36.8,8-53.8c-4.4-3.4-8-6.3-11.3-9.1c-3.5-2.9-7.1-6.1-11.7-10.3l0,0l0,0c-5.8-5.4-11.5-11-16.6-16.6
	C27.4,194,21,224.3,21,256.1c0,31.6,6.3,61.7,17.6,89.2L75.2,297.5z M386.5,302.1c-0.5-0.3-1-0.6-1.5-0.9c-1.6-1-3.3-1.9-5-3
	c-1.8-1-3.6-2-5.4-3.1c-3.7-2.1-7.7-4.2-11.9-6.4c-4.2-2.2-8.5-4.3-13-6.4c-4.5-2.1-9.1-4.1-13.7-6c-3.2-1.3-6.3-2.6-9.5-3.8
	c-3.3,14.2-10.9,26.7-21.2,36.4c2.7,2.2,5.4,4.4,8.2,6.5c4,3,8,6,12.1,8.8c4,2.8,8,5.5,12,8.1c3.9,2.6,7.8,4.9,11.5,7.1
	c1.8,1.1,3.6,2.1,5.4,3.2c1.8,1,3.5,1.9,5.1,2.9c0.5,0.3,1,0.6,1.5,0.8l-12.2,21.2l128.8,16.6L398.8,281L386.5,302.1z M219,466.1
	L219,466.1c-1.3-6.1-2.3-10.8-3.1-15.3c-0.8-4.2-1.5-8.8-2.2-14.3c-32-7.4-60.8-23.2-84-44.8L70,399.4
	c37.1,47.9,92.2,81.1,155.1,89.3C222.9,481.6,220.8,473.9,219,466.1L219,466.1z M150.4,346.4c0.5-0.3,1-0.5,1.5-0.8
	c1.6-0.9,3.3-1.9,5.1-2.9c1.7-1,3.5-2.1,5.4-3.2c3.7-2.2,7.5-4.6,11.5-7.1c3.9-2.5,8-5.2,12-8.1c4-2.8,8.1-5.8,12.1-8.8
	c2.8-2.1,5.5-4.3,8.2-6.5c-10.4-9.6-17.9-22.2-21.2-36.4c-3.2,1.2-6.4,2.5-9.5,3.8c-4.6,1.9-9.2,3.9-13.7,6c-4.5,2.1-8.8,4.2-13,6.4
	c-4.2,2.1-8.1,4.3-11.9,6.4c-1.9,1.1-3.7,2.1-5.4,3.1c-1.7,1-3.4,2-5,3c-0.5,0.3-1,0.6-1.5,0.9L112.7,281L33.9,384.2l128.8-16.6
	L150.4,346.4z"/>
</svg>
