<?xml version="1.0" encoding="utf-8"?>
<!-- Generator: Adobe Illustrator 23.0.2, SVG Export Plug-In . SVG Version: 6.00 Build 0)  -->
<svg version="1.1" id="Ebene_1" xmlns="http://www.w3.org/2000/svg" xmlns:xlink="http://www.w3.org/1999/xlink" x="0px" y="0px"
	 viewBox="0 0 16 16" style="enable-background:new 0 0 16 16;" xml:space="preserve">
<style type="text/css">
	.st0{fill:url(#SVGID_1_);}
</style>
<g>
	<linearGradient id="SVGID_1_" gradientUnits="userSpaceOnUse" x1="0" y1="8" x2="16" y2="8">
		<stop  offset="0" style="stop-color:#B41414"/>
		<stop  offset="1" style="stop-color:#B41464"/>
	</linearGradient>
	<path class="st0" d="M4.5,11.1C4.4,11.1,4.4,11.1,4.5,11.1l0.4,0.8l-4.4,0.6l2.7-3.5l0.4,0.7c0,0,0,0,0.1,0c0.1,0,0.1-0.1,0.2-0.1
		c0.1,0,0.1-0.1,0.2-0.1c0.1-0.1,0.3-0.1,0.4-0.2C4.5,9,4.6,9,4.8,8.9C4.9,8.8,5,8.8,5.1,8.8c0.1,0.5,0.4,1,0.8,1.3c0,0,0,0,0,0
		c-0.1,0.1-0.2,0.1-0.3,0.2c-0.1,0.1-0.3,0.2-0.4,0.3c-0.1,0.1-0.3,0.2-0.4,0.2c-0.1,0-0.1,0.1-0.2,0.1C4.6,11,4.5,11,4.5,11.1z
		 M8,6.2C7,6.2,6.2,7,6.2,8C6.2,9,7,9.8,8,9.8S9.8,9,9.8,8C9.8,7,9,6.2,8,6.2z M15,4.4c0.1-0.1,0.2-0.2,0.2-0.3c0,0,0.1-0.1,0.1-0.1
		c0,0,0.1-0.1,0.1-0.1c0-0.1,0.1-0.1,0.1-0.2c0,0,0-0.1,0-0.1s0,0-0.1,0c0,0-0.1,0-0.2,0c0,0-0.1,0-0.1,0c0,0-0.1,0-0.2,0
		c-0.1,0-0.2,0-0.4,0.1c-0.3,0.1-0.6,0.1-0.9,0.2c-0.2,0-0.3,0.1-0.5,0.2S13,4.3,12.8,4.3c-0.2,0.1-0.3,0.1-0.5,0.2
		c-0.2,0.1-0.3,0.1-0.4,0.2c-0.1,0.1-0.3,0.1-0.4,0.2c-0.1,0-0.1,0.1-0.2,0.1c-0.1,0-0.1,0.1-0.2,0.1c0,0,0,0-0.1,0l-0.4-0.7
		L9.8,5.6c0.1,0.1,0.2,0.2,0.3,0.3c0.5,0.5,0.8,1.1,0.8,1.7l1.4-0.2L12,6.7c0,0,0,0,0.1,0c0.1,0,0.1-0.1,0.2-0.1
		c0.1,0,0.1-0.1,0.2-0.1c0.1-0.1,0.3-0.2,0.4-0.2C12.9,6.2,13,6.1,13.2,6c0.1-0.1,0.3-0.2,0.4-0.3c0.1-0.1,0.3-0.2,0.4-0.3
		c0.1-0.1,0.3-0.2,0.4-0.3C14.6,4.8,14.8,4.6,15,4.4z M7.1,3.4C7.1,3.4,7.1,3.4,7.1,3.4c0,0.1,0,0.2,0,0.3c0,0.1,0,0.1,0,0.2
		c0,0.1,0,0.3,0,0.5c0,0.2,0,0.3,0,0.5c0,0.1,0,0.3,0,0.4C7.5,5.1,7.7,5,8,5c0.3,0,0.5,0,0.8,0.1c0-0.1,0-0.3,0-0.4
		c0-0.2,0-0.3,0-0.5c0-0.2,0-0.3,0-0.5c0-0.1,0-0.1,0-0.2c0-0.1,0-0.1,0-0.2c0,0,0,0,0-0.1h0.8L8.3,0C8.2,0,8.1,0,8,0
		C7.9,0,7.8,0,7.7,0L6.3,3.4H7.1z M15.6,12.4l-2.7-3.5l-0.4,0.7c0,0,0,0-0.1,0c-0.1,0-0.1-0.1-0.2-0.1c-0.1,0-0.1-0.1-0.2-0.1
		c-0.1-0.1-0.3-0.1-0.4-0.2C11.5,9,11.4,9,11.2,8.9c-0.1-0.1-0.2-0.1-0.3-0.1c-0.1,0.5-0.4,1-0.8,1.4c0.1,0.1,0.2,0.1,0.3,0.2
		c0.1,0.1,0.3,0.2,0.4,0.3c0.1,0.1,0.3,0.2,0.4,0.2c0.1,0,0.1,0.1,0.2,0.1c0.1,0,0.1,0.1,0.2,0.1c0,0,0,0,0.1,0l-0.4,0.7L15.6,12.4z
		 M5,0.6c0,0-0.1,0-0.1,0.1c0,0,0,0-0.1,0c0,0-0.1,0-0.1,0c-0.1,0-0.1,0.1-0.2,0.1c0,0,0,0,0,0c0,0-0.1,0-0.1,0.1c0,0,0,0,0,0
		C3.5,1.3,2.7,2,2,2.7c0.2,0,0.4,0.1,0.6,0.2l0,0l0,0C2.7,2.9,2.9,3,3.1,3c0.2,0.1,0.3,0.1,0.4,0.2l0.1,0l0,0l0,0
		c0.1,0,0.1,0,0.2,0.1c0.5-0.5,1.1-0.8,1.7-1.1l0.8-2C5.9,0.3,5.5,0.4,5,0.6C5.1,0.6,5.1,0.6,5,0.6z M5.3,4.5L4.9,5.2c0,0,0,0-0.1,0
		c-0.1,0-0.1-0.1-0.2-0.1C4.6,5,4.6,5,4.5,5C4.4,4.9,4.2,4.8,4.1,4.7C3.9,4.7,3.8,4.6,3.6,4.5C3.5,4.5,3.3,4.4,3.2,4.3
		C3,4.3,2.9,4.2,2.7,4.1C2.5,4.1,2.4,4,2.2,4C1.9,3.9,1.6,3.8,1.4,3.8c-0.1,0-0.3,0-0.4-0.1c-0.1,0-0.1,0-0.2,0c0,0-0.1,0-0.1,0
		c-0.1,0-0.1,0-0.2,0c0,0-0.1,0-0.1,0s0,0,0,0.1c0,0,0.1,0.1,0.1,0.2c0,0,0.1,0.1,0.1,0.1c0,0,0.1,0.1,0.1,0.1
		C0.8,4.2,0.9,4.3,1,4.4C1.2,4.6,1.4,4.8,1.6,5C1.8,5.1,1.9,5.2,2,5.3c0.1,0.1,0.3,0.2,0.4,0.3C2.5,5.8,2.7,5.9,2.8,6
		C3,6.1,3.1,6.1,3.2,6.2c0.1,0.1,0.3,0.2,0.4,0.2c0.1,0,0.1,0.1,0.2,0.1c0.1,0,0.1,0.1,0.2,0.1c0,0,0,0,0.1,0L3.6,7.4l1.4,0.2
		c0.1-0.8,0.5-1.5,1.1-2L5.3,4.5z M1.7,8.8c0-0.2,0-0.5,0-0.8c0-0.5,0-0.9,0.1-1.3c0,0-0.1-0.1-0.1-0.1l0,0l0,0c0,0-0.1,0-0.1-0.1
		C1.5,6.4,1.4,6.3,1.3,6.2C1.1,6.1,1,6,0.9,5.9l0,0l0,0C0.7,5.7,0.6,5.6,0.4,5.4C0.1,6.2,0,7.1,0,8c0,0.9,0.1,1.7,0.4,2.5L1.7,8.8z
		 M15.2,5.9L15.2,5.9L15.2,5.9C15,6,14.9,6.1,14.7,6.2c-0.1,0.1-0.3,0.2-0.4,0.4l0,0l0,0c0,0-0.1,0.1-0.1,0.1
		c0.1,0.4,0.1,0.9,0.1,1.3c0,0.3,0,0.5,0,0.8l1.3,1.7C15.9,9.7,16,8.9,16,8c0-0.9-0.1-1.7-0.4-2.6C15.4,5.6,15.3,5.7,15.2,5.9z
		 M9.6,0.2l0.8,2c0.6,0.3,1.2,0.7,1.8,1.1c0,0,0.1,0,0.1-0.1c0.2-0.1,0.3-0.1,0.5-0.2c0.2-0.1,0.4-0.1,0.5-0.2
		c0.2-0.1,0.4-0.1,0.6-0.2c0,0,0,0,0,0h0C12.8,1.4,11.3,0.5,9.6,0.2z M6.4,15.8c-0.1-0.2-0.1-0.4-0.1-0.6l0,0l0,0c0,0,0-0.1,0-0.1
		c0-0.1-0.1-0.3-0.1-0.4c0-0.2-0.1-0.4-0.1-0.5l0,0l0,0c0,0,0-0.1,0-0.1c-0.7-0.2-1.3-0.5-1.8-1L2,13.3c0.1,0.1,0.2,0.2,0.3,0.3h0
		C3.4,14.7,4.8,15.5,6.4,15.8z M8.3,16c0,0,0-0.1,0-0.1c0.1-0.3,0.2-0.6,0.2-0.9c0-0.2,0.1-0.3,0.1-0.5c0-0.2,0.1-0.3,0.1-0.5
		c0-0.2,0-0.3,0.1-0.5c0-0.2,0-0.3,0-0.5c0-0.2,0-0.3,0-0.5c0-0.1,0-0.1,0-0.2c0-0.1,0-0.1,0-0.2c0,0,0,0,0-0.1h0.8l-0.6-1.4
		C8.8,10.9,8.4,11,8,11c-0.4,0-0.8-0.1-1.1-0.2l-0.6,1.4h0.8c0,0,0,0,0,0.1c0,0.1,0,0.1,0,0.2c0,0.1,0,0.1,0,0.2c0,0.1,0,0.3,0,0.5
		c0,0.2,0,0.3,0,0.5c0,0.2,0,0.3,0.1,0.5c0,0.2,0,0.3,0.1,0.5c0,0.2,0.1,0.3,0.1,0.5c0.1,0.3,0.2,0.6,0.2,0.9c0,0,0,0.1,0,0.1
		c0.1,0,0.2,0,0.3,0C8.1,16,8.2,16,8.3,16z M11.8,13c-0.6,0.4-1.2,0.7-1.9,1c0,0,0,0.1,0,0.1l0,0l0,0c0,0.2-0.1,0.4-0.1,0.6
		c0,0.2-0.1,0.4-0.1,0.5l0,0l0,0c0,0.2-0.1,0.4-0.1,0.6c1.6-0.3,3-1.1,4.1-2.2h0c0.1-0.1,0.2-0.2,0.3-0.3L11.8,13z"/>
</g>
</svg>
