<?xml version="1.0" encoding="utf-8"?>
<!-- Generator: Adobe Illustrator 22.1.0, SVG Export Plug-In . SVG Version: 6.00 Build 0)  -->
<svg version="1.1" id="Ebene_1" xmlns="http://www.w3.org/2000/svg" xmlns:xlink="http://www.w3.org/1999/xlink" x="0px" y="0px"
	 viewBox="0 0 64 64" style="enable-background:new 0 0 64 64;" xml:space="preserve">
<style type="text/css">
	.st0{fill:#FFFFFF;}
</style>
<g>
	<path class="st0" d="M59.7,48c-2.9,4.9-6.8,8.8-11.7,11.7C43.1,62.6,37.8,64,32,64c-4.8,0-9.4-1-13.6-3c-4.3-2-7.9-4.8-10.9-8.3
		s-5.1-7.5-6.3-11.9l12.3,5c0.4,2.1,1.5,3.8,3.1,5.2c1.6,1.4,3.6,2.1,5.8,2.1c2.5,0,4.6-0.9,6.5-2.8c1.8-1.8,2.7-4.1,2.6-6.6
		l10.8-7.7c3.4,0.1,6.4-1.1,8.8-3.5c2.4-2.4,3.6-5.3,3.6-8.6s-1.2-6.2-3.5-8.5c-2.4-2.3-5.2-3.5-8.5-3.5s-6.2,1.2-8.5,3.5
		s-3.5,5.2-3.5,8.5v0.1L22.8,35c-2.1-0.1-4,0.4-5.7,1.5L0,29.4C0.4,24,2.1,19.1,5.1,14.6s6.8-8,11.5-10.6S26.4,0,32,0
		c5.8,0,11.1,1.4,16,4.3s8.8,6.8,11.7,11.7c2.9,4.9,4.3,10.2,4.3,16S62.6,43.1,59.7,48z M16.1,47c0.8,1.5,2,2.7,3.7,3.4
		c1.7,0.7,3.4,0.7,5.1-0.1c1.7-0.7,2.9-2,3.7-3.7c0.7-1.7,0.7-3.4,0-5.2c-0.7-1.7-1.9-2.9-3.6-3.7c-1.7-0.7-3.4-0.8-5.1-0.1l4.1,1.7
		c1.2,0.5,2.1,1.4,2.6,2.6c0.6,1.2,0.6,2.5,0,3.8c-0.6,1.3-1.5,2.2-2.7,2.7s-2.5,0.5-3.8,0L16.1,47z M36.8,29.4
		c-1.6-1.5-2.4-3.4-2.4-5.7s0.8-4.1,2.4-5.7c1.6-1.5,3.5-2.3,5.7-2.3c2.2,0,4.1,0.8,5.7,2.3c1.6,1.5,2.4,3.4,2.4,5.7
		s-0.8,4.1-2.4,5.7c-1.6,1.5-3.5,2.3-5.6,2.3C40.3,31.7,38.4,31,36.8,29.4z M46.8,28c1.2-1.2,1.8-2.6,1.8-4.3s-0.6-3.1-1.8-4.3
		c-1.2-1.2-2.6-1.8-4.3-1.8c-1.7,0-3.1,0.6-4.3,1.8c-1.2,1.2-1.7,2.6-1.7,4.3s0.6,3.1,1.7,4.3s2.6,1.8,4.3,1.8
		C44.2,29.8,45.6,29.2,46.8,28z"/>
</g>
</svg>
